<?xml version="1.0" encoding="UTF-8"?>
<svg id="Layer_2" data-name="Layer 2" xmlns="http://www.w3.org/2000/svg" viewBox="0 0 534.93 248.13">
  <defs>
    <style>
      .cls-1 {
        fill: #fff;
      }

      .cls-2 {
        fill: #440f21;
      }
    </style>
  </defs>
  <g id="Arte">
    <g>
      <path class="cls-2" d="M154.11,123.66h3.35v1.81h-13.06l-10.34-33.5h-34.65c-1.28,2.84-2.46,5.25-3.52,7.16h0s-.33.59-.33.59l-.33.58h0c-4.34,7.35-10.49,13.54-17.83,17.94-7.74,4.64-16.63,7.14-25.7,7.24h-1.09c-6.85-.07-13.49-1.47-19.73-4.17-6.03-2.6-11.44-6.3-16.08-10.99-4.64-4.69-8.29-10.14-10.83-16.2-2.63-6.27-3.97-12.93-3.97-19.79s1.34-13.52,3.97-19.79c2.54-6.06,6.19-11.51,10.83-16.2,4.64-4.69,10.05-8.39,16.08-10.99,6.24-2.69,12.87-4.1,19.72-4.17h1.09c10.69.11,20.89,3.48,29.5,9.75,4.15,3.02,7.82,6.63,10.9,10.74,3.11,4.15,5.57,8.73,7.29,13.61l.43,1.21h-9.86l-.19-.65c-2.78-9.44-7.82-17.55-14.59-23.46-6.86-6-14.98-9.24-23.47-9.38h-1.1c-10.79.16-20.93,5.35-28.55,14.6-7.66,9.3-11.88,21.64-11.88,34.74s4.22,25.44,11.88,34.74c7.62,9.25,17.76,14.43,28.56,14.6h1.07c8.74-.09,17.31-2.51,24.78-6.98,7.26-4.35,13.32-10.53,17.52-17.86,6.99-12.23,17.55-43.57,23.27-61.32l-4.42-14.33h10.27l31,100.49h0ZM133.5,90.16l-15.32-49.64c-5.04,15.53-11.99,35.9-17.97,49.64h33.29Z"/>
      <path class="cls-2" d="M167.4,97.07h1.81v.7c0,1.03.06,2.08.19,3.1.7,5.81,3.25,11.06,7.4,15.21.13.13.26.26.39.39l.11.11c.11.1.21.2.32.3l.09.08c.13.12.27.24.41.36l.09.08c.12.1.24.2.36.3l.08.07c4.46,3.68,9.89,5.71,15.69,5.88h.45c.11.01.21.01.31.01s.2,0,.3,0h.2c.08,0,.16,0,.23,0,5.35-.19,10.39-2.38,14.17-6.17,3.98-3.99,6.18-9.28,6.18-14.92s-2.19-10.93-6.18-14.92c-.28-.28-.57-.55-.86-.82l-1.57-1.31h0c-6.93-5.83-34.2-28.7-34.47-28.92-4.36-3.66-6.02-9.69-4.13-15.02,0,0,.07-.18.07-.18,1.38-3.8,3.54-7.19,6.42-10.08l.03-.03c2.71-2.71,5.88-4.79,9.41-6.18,3.25-1.28,6.67-1.93,10.17-1.93.18,0,.35,0,.53,0,5.96.11,11.59,2.08,16.3,5.69.97.66,2.1,1.01,3.27,1.01,3.2,0,5.8-2.6,5.8-5.8v-.67h1.81v28.14h-1.81v-.67c0-6.92-2.69-13.42-7.58-18.31-.13-.13-.25-.25-.38-.37-.05-.05-.1-.1-.16-.15-.08-.08-.16-.15-.24-.22-.09-.09-.19-.17-.29-.26-.07-.07-.15-.13-.22-.19-.08-.07-.15-.13-.23-.2-.05-.05-.11-.09-.16-.14-.17-.14-.77-.62-.86-.69-4.41-3.4-9.69-5.25-15.28-5.35-.17,0-.33,0-.5,0-3.27,0-6.47.61-9.51,1.8-3.3,1.3-6.26,3.25-8.79,5.78l-.03.03c-1.56,1.57-2.78,5.21-2.09,9.11.51,2.9,2.84,5.22,4.55,6.71l35.43,29.73c.77.69,7.53,7.05,8.11,18.11.43,7.85-2.51,15.55-8.07,21.1-5.02,5.02-11.68,7.89-18.77,8.1h-.01c-.1,0-.18,0-.27,0h-.2c-.12,0-.23,0-.34,0s-.33,0-.33,0h-.47c-5.81-.18-11.3-2.11-15.91-5.61l-.04-.03c-.98-.7-2.14-1.06-3.35-1.06-3.19,0-5.79,2.6-5.79,5.79v.67h-1.81v-28.17Z"/>
      <path class="cls-2" d="M244.24,91.97l-7.07,31.69h7.08v1.81h-16.41v-1.81h.67c3.85,0,7.23-2.59,8.22-6.31l17.25-77.47-5.16-16.71h10.27l31,100.49h3.35v1.81h-13.06l-10.34-33.5h-25.81ZM269.49,90.16l-14.43-46.78-10.41,46.78h24.85Z"/>
      <path class="cls-2" d="M353.46,123.66h3.36v1.81h-16.41v-1.81h2.76l-15.88-47.96c-8.48.33-15.3,7.43-15.3,16.04l-.15,31.92h3.11v1.81h-16.41v-1.81h3.11V24.98h-3.11v-1.81h29.45c6.31.08,12.36,2.45,17.05,6.68,5.51,4.97,8.67,12.09,8.67,19.54s-3.16,14.57-8.67,19.54c-3.59,3.24-8.05,5.41-12.78,6.27l5.81,1.95,15.39,46.51ZM327.92,73.87h.04c3.74-.05,7.39-1.52,10.28-4.13,3.3-2.97,5.22-7.23,5.28-11.69v-17.33c-.06-4.44-1.99-8.7-5.28-11.67-2.83-2.55-6.47-3.99-10.26-4.06h-16.14s0,59.21,0,59.21c2.86-6.17,9.08-10.33,16.08-10.33Z"/>
      <path class="cls-2" d="M378.33,91.97l-7.07,31.69h7.08v1.81h-16.41v-1.81h.67c3.85,0,7.23-2.59,8.22-6.31l17.25-77.47-5.16-16.71h10.27l31,100.49h3.35v1.81h-13.06l-10.34-33.5h-25.81ZM403.58,90.16l-14.43-46.78-10.41,46.78h24.85Z"/>
      <path class="cls-2" d="M436.6,94.11c-2.63-6.27-3.97-12.93-3.97-19.79s1.34-13.52,3.97-19.79c2.55-6.06,6.19-11.51,10.83-16.2,4.64-4.69,10.05-8.39,16.08-10.99,6.24-2.69,12.87-4.1,19.72-4.17h1.09c6.85.07,13.49,1.48,19.72,4.17,6.03,2.6,11.44,6.3,16.08,10.99,4.64,4.69,8.29,10.14,10.83,16.2,2.63,6.27,3.97,12.93,3.97,19.79s-1.34,13.52-3.97,19.79c-2.54,6.06-6.19,11.51-10.83,16.2-4.64,4.69-10.05,8.38-16.08,10.99-6.24,2.69-12.87,4.1-19.72,4.17h-1.1c-6.85-.07-13.49-1.48-19.72-4.17-6.03-2.6-11.44-6.3-16.08-10.99-4.64-4.69-8.29-10.14-10.83-16.2ZM483.25,24.99c-10.8.17-20.94,5.35-28.55,14.6-7.66,9.3-11.88,21.64-11.88,34.74s4.22,25.44,11.88,34.74c7.62,9.25,17.76,14.43,28.56,14.6h1.07c10.79-.17,20.93-5.35,28.54-14.6,7.66-9.3,11.88-21.64,11.88-34.74s-4.22-25.44-11.88-34.74c-7.61-9.25-17.76-14.43-28.55-14.6h-1.06Z"/>
      <g>
        <path class="cls-2" d="M39.03,243.04l16.92-95.4h-6.76v-1.81h21.15v1.81h-5.41c-3.86,0-7.25,2.57-8.25,6.26l-16.72,94.23h-9.83L3.32,147.64H0v-1.81h13.09l25.94,97.21Z"/>
        <path class="cls-2" d="M80.56,246.32v-98.68h-3.11v-1.81h16.41v1.81h-3.11v98.68h3.11v1.81h-16.41v-1.81h3.11Z"/>
        <path class="cls-2" d="M159.33,231.25v-.67h1.81v17.55h-55.17v-1.81h3.11v-98.68h-3.11v-1.81h13.3v100.49h25.86c7.96-.47,14.19-7.08,14.19-15.07Z"/>
        <path class="cls-2" d="M279.37,246.32h3.35v1.81h-13.06l-10.34-33.5h-25.8l-7.07,31.69h7.07v1.81s-62.47,0-62.47,0v-1.81h3.11v-98.68h-3.11v-1.81h13.3v100.49h25.89c3.87,0,7.78-1.29,11.02-3.64,3.19-2.32,5.36-5.41,6.09-8.69l15.9-71.44-5.16-16.71h10.27l31,100.49ZM258.76,212.82l-14.43-46.78-10.41,46.78h24.84Z"/>
      </g>
      <path class="cls-2" d="M378.2,8.85l-1.2-.5v-.48l.05-.1c.92-2.21,2.43-4.1,4.38-5.47,1.9-1.34,4.12-2.13,6.44-2.28.29-.02.58-.03.86-.03,1.45,0,2.88.25,4.26.75.12.04,2.73,1.12,7.77,3.2l.15.06c.73.3,1.49.45,2.26.45s1.49-.14,2.2-.43c1.44-.58,2.58-1.67,3.2-3.08l.21-.48,1.31.57-.21.48c-1.88,4.36-6,7.26-10.74,7.59-.28.02-.57.03-.85.03-1.45,0-2.88-.25-4.26-.75l-.5-.18v-.02c-.75-.31-2.65-1.08-7.43-3.03-.72-.3-1.48-.45-2.25-.45-2.39,0-4.53,1.42-5.46,3.62l-.18.52Z"/>
      <g>
        <path class="cls-1" d="M467.54,62.27v24.08h18.35v3.8h-22.45v-27.88h4.09Z"/>
        <path class="cls-1" d="M483.07,90.16l10.39-27.88h6.14l10.26,27.88h-4.35l-2.54-6.99h-13.07l-2.58,6.99h-4.25ZM501.61,79.46l-5.13-14.1-5.22,14.1h10.34Z"/>
      </g>
    </g>
  </g>
</svg>