<?xml version="1.0" encoding="UTF-8"?>
<svg id="Layer_2" data-name="Layer 2" xmlns="http://www.w3.org/2000/svg" viewBox="0 0 973.73 319.06">
  <defs>
    <style>
      .cls-1 {
        fill: none;
        stroke: #f9b9d3;
        stroke-linecap: round;
        stroke-linejoin: round;
        stroke-width: 2px;
      }
    </style>
  </defs>
  <g id="Arte">
    <g>
      <g>
        <polyline class="cls-1" points="461.32 11.52 327.58 11.52 170.3 51.59 203.36 62.61 203.36 193.47 39.07 193.47 39.07 308.3 935.67 308.3 935.67 72.63 972.73 63.61 647.15 11.52 590.55 11.52"/>
        <polyline class="cls-1" points="39.07 193.47 1 183.83 203.36 130.73"/>
        <polyline class="cls-1" points="440.78 318.06 440.78 174.81 659.3 174.81 674.33 158.78 428.76 158.78 440.78 174.81"/>
        <line class="cls-1" x1="659.3" y1="174.81" x2="659.3" y2="318.06"/>
        <polyline class="cls-1" points="590.55 174.81 590.55 308.3 461.32 308.3 461.32 174.81"/>
        <polyline class="cls-1" points="461.32 158.78 461.32 1 590.55 1 590.55 158.78"/>
        <line class="cls-1" x1="203.36" y1="62.61" x2="461.32" y2="62.61"/>
        <line class="cls-1" x1="935.67" y1="72.63" x2="590.55" y2="62.61"/>
        <rect class="cls-1" x="487.37" y="91.16" width="79.14" height="40.07"/>
        <line class="cls-1" x1="626.12" y1="174.81" x2="626.12" y2="308.3"/>
        <rect class="cls-1" x="722.29" y="75.63" width="64.11" height="104.19"/>
        <rect class="cls-1" x="722.29" y="186.83" width="64.11" height="111.7"/>
        <rect class="cls-1" x="356.97" y="75.63" width="64.11" height="104.19"/>
        <rect class="cls-1" x="356.97" y="186.83" width="64.11" height="111.7"/>
        <rect class="cls-1" x="251.11" y="75.63" width="64.11" height="104.19"/>
        <rect class="cls-1" x="58.77" y="209.87" width="123.55" height="31.68"/>
        <rect class="cls-1" x="251.11" y="186.83" width="64.11" height="111.7"/>
        <polyline class="cls-1" points="626.12 158.78 626.12 75.63 688.73 75.63 688.73 179.82 626.12 179.82 626.12 174.81"/>
        <rect class="cls-1" x="626.12" y="186.83" width="62.61" height="111.7"/>
        <rect class="cls-1" x="858.53" y="75.63" width="43.58" height="104.19"/>
        <rect class="cls-1" x="858.53" y="186.83" width="43.58" height="111.7"/>
        <polyline class="cls-1" points="77.05 163.87 77.05 82.42 53.43 72.63 235.75 27.88 263.36 27.88"/>
        <line class="cls-1" x1="77.05" y1="82.42" x2="203.36" y2="82.42"/>
      </g>
      <rect class="cls-1" x="492.38" y="186.83" width="68.12" height="121.47"/>
      <rect class="cls-1" x="572.02" y="226.9" width="6.01" height="17.53" rx="3.01" ry="3.01"/>
      <rect class="cls-1" x="474.59" y="226.9" width="6.01" height="17.53" rx="3.01" ry="3.01"/>
    </g>
  </g>
</svg>