<?xml version="1.0" encoding="UTF-8"?>
<svg id="Layer_2" data-name="Layer 2" xmlns="http://www.w3.org/2000/svg" viewBox="0 0 80 89.65">
  <defs>
    <style>
      .cls-1 {
        fill: #f2dcd6;
      }
    </style>
  </defs>
  <g id="Arte">
    <path class="cls-1" d="M0,66.48s3.86-2.07,7.17,3.31c3.31,5.38,15.45,28.41,41.24,12.69,0,0,3.86-6.07,10.07-3.31,6.21,2.76,21.52,10.48,21.52,10.48v-16.41l-21.65-.41,21.65-1.79v-11.17l-22.21,7.03,22.21-10.48v-16.28l-25.1,20.41s-4.66,1.79-4.97-3.21c0,0-.55-3.1,4.69-3,5.24.1,19.03-6.48,22.28-24.9s3.1-29.45,3.1-29.45L26.81,45.78c-3.59,3.09-5.29,7.83-4.49,12.49h0c.45,2.62-2.02,4.8-4.57,4.02l-6.48-2c-2.64-.81-5.51-.04-7.38,1.98l-3.9,4.21Z"/>
  </g>
</svg>