<?xml version="1.0" encoding="UTF-8"?>
<svg id="Layer_2" data-name="Layer 2" xmlns="http://www.w3.org/2000/svg" viewBox="0 0 430.7 105.81">
  <defs>
    <style>
      .cls-1 {
        fill: #715f26;
      }

      .cls-2 {
        fill: #f6b1ca;
      }
    </style>
  </defs>
  <g id="Arte">
    <g>
      <path class="cls-2" d="M415.42,105.81c-.77,0-50.5-3.06-50.5-52.91C364.92,3.03,414.68,0,415.42,0c8.44,0,15.28,6.01,15.28,13.42,0,6.51-5.28,11.94-12.29,13.16,7.01,1.22,12.29,6.65,12.29,13.16s-5.28,11.94-12.29,13.16c7.01,1.22,12.29,6.65,12.29,13.16s-5.28,11.94-12.29,13.16c7.01,1.22,12.29,6.65,12.29,13.16,0,7.41-6.84,13.42-15.28,13.42Z"/>
      <path class="cls-1" d="M353.27,104.07c0-25.54-18.41-46.76-42.67-51.16,24.26-4.4,42.67-25.63,42.67-51.16h0s0,0,0,0c-28.16,0-51.07,22.37-51.97,50.31-.01,0-.01,1.71,0,1.71.9,27.94,23.82,50.31,51.97,50.31h0Z"/>
      <rect class="cls-1" x="310.28" y="51.03" width="61.66" height="3.75" rx="1.87" ry="1.87" transform="translate(682.22 105.81) rotate(-180)"/>
    </g>
    <g>
      <path class="cls-2" d="M264.78,105.81c-.77,0-50.5-3.06-50.5-52.91C214.28,3.03,264.04,0,264.78,0c8.44,0,15.28,6.01,15.28,13.42,0,6.51-5.28,11.94-12.29,13.16,7.01,1.22,12.29,6.65,12.29,13.16s-5.28,11.94-12.29,13.16c7.01,1.22,12.29,6.65,12.29,13.16s-5.28,11.94-12.29,13.16c7.01,1.22,12.29,6.65,12.29,13.16,0,7.41-6.84,13.42-15.28,13.42Z"/>
      <path class="cls-1" d="M202.63,104.07c0-25.54-18.41-46.76-42.67-51.16,24.26-4.4,42.67-25.63,42.67-51.16h0s0,0,0,0c-28.16,0-51.07,22.37-51.97,50.31-.01,0-.01,1.71,0,1.71.9,27.94,23.82,50.31,51.97,50.31h0Z"/>
      <rect class="cls-1" x="159.64" y="51.03" width="61.66" height="3.75" rx="1.87" ry="1.87" transform="translate(380.94 105.81) rotate(-180)"/>
    </g>
    <g>
      <path class="cls-2" d="M114.14,105.81c-.77,0-50.5-3.06-50.5-52.91S113.4,0,114.14,0c8.44,0,15.28,6.01,15.28,13.42,0,6.51-5.28,11.94-12.29,13.16,7.01,1.22,12.29,6.65,12.29,13.16s-5.28,11.94-12.29,13.16c7.01,1.22,12.29,6.65,12.29,13.16s-5.28,11.94-12.29,13.16c7.01,1.22,12.29,6.65,12.29,13.16,0,7.41-6.84,13.42-15.28,13.42Z"/>
      <path class="cls-1" d="M51.98,104.07c0-25.54-18.41-46.76-42.67-51.16C33.58,48.5,51.98,27.28,51.98,1.74h0s0,0,0,0C23.83,1.74.91,24.12.01,52.05c-.01,0-.01,1.71,0,1.71.9,27.94,23.82,50.31,51.97,50.31h0Z"/>
      <rect class="cls-1" x="9" y="51.03" width="61.66" height="3.75" rx="1.87" ry="1.87" transform="translate(79.66 105.81) rotate(-180)"/>
    </g>
  </g>
</svg>