<?xml version="1.0" encoding="UTF-8"?>
<svg id="Layer_2" data-name="Layer 2" xmlns="http://www.w3.org/2000/svg" viewBox="0 0 1125 389.72">
  <defs>
    <style>
      .cls-1 {
        fill: #715f26;
      }

      .cls-2 {
        fill: #f2dcd6;
      }

      .cls-3 {
        fill: #f6b1ca;
      }
    </style>
  </defs>
  <g id="BG">
    <g>
      <rect class="cls-3" x="367.64" y="-367.45" width="389.71" height="1124.61" transform="translate(757.36 -367.64) rotate(90)"/>
      <g>
        <g>
          <g>
            <path class="cls-2" d="M133,0v128.31c0,36.73-29.77,66.5-66.5,66.5S2.86,167.81.2,133.51c-.13-1.72-.2-3.45-.2-5.2v-.6h.2V0h132.8Z"/>
            <path class="cls-1" d="M66.5,61.21c0,36.66-29.67,66.39-66.3,66.5V0h25.81c23.8,10.12,40.49,33.71,40.49,61.21Z"/>
            <path class="cls-1" d="M106.99,0c-23.8,10.12-40.49,33.71-40.49,61.21,0,36.73,29.77,66.5,66.5,66.5V0h-26.01Z"/>
          </g>
          <g>
            <path class="cls-2" d="M133,261.41v128.31H.2v-127.71h-.2v-.6c0-1.75.07-3.48.2-5.2,2.66-34.3,31.33-61.3,66.3-61.3,18.36,0,34.99,7.44,47.02,19.48,12.03,12.03,19.48,28.66,19.48,47.02Z"/>
            <path class="cls-1" d="M66.5,328.51c0,27.5-16.69,51.09-40.49,61.21H.2v-127.71c36.64.11,66.3,29.84,66.3,66.5Z"/>
            <path class="cls-1" d="M133,262.01v127.71h-26.01c-23.8-10.12-40.49-33.71-40.49-61.21,0-36.73,29.77-66.5,66.5-66.5Z"/>
          </g>
        </g>
        <g>
          <g>
            <path class="cls-2" d="M850.28,0v128.31c0,36.73,29.77,66.5,66.5,66.5s66.5-29.77,66.5-66.5V0h-133Z"/>
            <path class="cls-1" d="M876.29,0c23.8,10.12,40.49,33.71,40.49,61.21,0,36.73-29.77,66.5-66.5,66.5V0h26.01Z"/>
            <path class="cls-1" d="M983.29,0v127.71c-36.73,0-66.5-29.77-66.5-66.5,0-27.5,16.69-51.09,40.49-61.21h26.01Z"/>
          </g>
          <g>
            <path class="cls-2" d="M983.29,261.41v128.31h-133v-128.31c0-36.73,29.77-66.5,66.5-66.5,18.36,0,34.99,7.44,47.02,19.48,12.03,12.03,19.48,28.66,19.48,47.02Z"/>
            <path class="cls-1" d="M916.79,328.51c0,27.5-16.69,51.09-40.49,61.21h-26.01v-127.71c36.73,0,66.5,29.77,66.5,66.5Z"/>
            <path class="cls-1" d="M983.29,262.01v127.71h-26.01c-23.8-10.12-40.49-33.71-40.49-61.21,0-36.73,29.77-66.5,66.5-66.5Z"/>
          </g>
        </g>
        <g>
          <path class="cls-2" d="M274.5,0c-2.71,34.23-31.35,61.17-66.29,61.17S144.64,34.23,141.93,0h132.57Z"/>
          <g>
            <rect class="cls-2" x="141.72" y="61.26" width="133" height="267.21" rx="66.5" ry="66.5"/>
            <path class="cls-1" d="M141.72,128.36c36.73,0,66.5,29.77,66.5,66.5s-29.77,66.5-66.5,66.5v-133Z"/>
            <path class="cls-1" d="M274.72,261.36c-36.73,0-66.5-29.77-66.5-66.5,0-36.73,29.77-66.5,66.5-66.5v133Z"/>
          </g>
          <path class="cls-2" d="M274.5,389.72h-132.57c2.71-34.24,31.36-61.17,66.29-61.17,18.36,0,34.99,7.44,47.02,19.48,10.86,10.86,17.98,25.45,19.27,41.69Z"/>
        </g>
        <g>
          <g>
            <path class="cls-2" d="M416.43,0v128.31c0,36.73-29.77,66.5-66.5,66.5s-66.5-29.77-66.5-66.5V0h133Z"/>
            <path class="cls-1" d="M349.93,61.21c0,36.73-29.77,66.5-66.5,66.5V0h26.01c23.8,10.12,40.49,33.71,40.49,61.21Z"/>
            <path class="cls-1" d="M416.43,0v127.71c-36.73,0-66.5-29.77-66.5-66.5,0-27.5,16.69-51.09,40.49-61.21h26.01Z"/>
          </g>
          <g>
            <path class="cls-2" d="M416.43,261.41v128.31h-133v-128.31c0-36.73,29.78-66.5,66.5-66.5,18.36,0,34.99,7.44,47.02,19.48,12.03,12.03,19.48,28.66,19.48,47.02Z"/>
            <path class="cls-1" d="M349.93,328.51c0,27.5-16.69,51.09-40.49,61.21h-26.01v-127.71c36.73,0,66.5,29.77,66.5,66.5Z"/>
            <path class="cls-1" d="M416.43,262.01v127.71h-26.01c-23.8-10.12-40.49-33.71-40.49-61.21,0-36.73,29.77-66.5,66.5-66.5Z"/>
          </g>
        </g>
        <g>
          <path class="cls-2" d="M557.93,0c-2.71,34.23-31.35,61.17-66.29,61.17s-63.58-26.94-66.29-61.17h132.57Z"/>
          <g>
            <rect class="cls-2" x="425.15" y="61.26" width="133" height="267.21" rx="66.5" ry="66.5"/>
            <path class="cls-1" d="M425.15,128.36c36.73,0,66.5,29.77,66.5,66.5s-29.77,66.5-66.5,66.5v-133Z"/>
            <path class="cls-1" d="M558.14,261.36c-36.73,0-66.5-29.77-66.5-66.5,0-36.73,29.77-66.5,66.5-66.5v133Z"/>
          </g>
          <path class="cls-2" d="M557.93,389.72h-132.57c2.71-34.24,31.36-61.17,66.29-61.17,18.36,0,34.99,7.44,47.02,19.48,10.86,10.86,17.98,25.45,19.27,41.69Z"/>
        </g>
        <g>
          <g>
            <path class="cls-2" d="M699.86,0v128.31c0,36.73-29.77,66.5-66.5,66.5s-66.5-29.77-66.5-66.5V0h133Z"/>
            <path class="cls-1" d="M633.36,61.21c0,36.73-29.77,66.5-66.5,66.5V0h26.01c23.8,10.12,40.49,33.71,40.49,61.21Z"/>
            <path class="cls-1" d="M699.86,0v127.71c-36.73,0-66.5-29.77-66.5-66.5,0-27.5,16.69-51.09,40.49-61.21h26.01Z"/>
          </g>
          <g>
            <path class="cls-2" d="M699.86,261.41v128.31h-133v-128.31c0-36.73,29.77-66.5,66.5-66.5,18.36,0,34.99,7.44,47.02,19.48,12.03,12.03,19.48,28.66,19.48,47.02Z"/>
            <path class="cls-1" d="M633.36,328.51c0,27.5-16.69,51.09-40.49,61.21h-26.01v-127.71c36.73,0,66.5,29.77,66.5,66.5Z"/>
            <path class="cls-1" d="M699.86,262.01v127.71h-26.01c-23.8-10.12-40.49-33.71-40.49-61.21,0-36.73,29.77-66.5,66.5-66.5Z"/>
          </g>
        </g>
        <g>
          <path class="cls-2" d="M841.36,0c-2.71,34.23-31.35,61.17-66.29,61.17s-63.58-26.94-66.29-61.17h132.57Z"/>
          <g>
            <rect class="cls-2" x="708.57" y="61.26" width="133" height="267.21" rx="66.5" ry="66.5"/>
            <path class="cls-1" d="M708.57,128.36c36.73,0,66.5,29.77,66.5,66.5s-29.77,66.5-66.5,66.5v-133Z"/>
            <path class="cls-1" d="M841.57,261.36c-36.73,0-66.5-29.77-66.5-66.5,0-36.73,29.77-66.5,66.5-66.5v133Z"/>
          </g>
          <path class="cls-2" d="M841.36,389.72h-132.57c2.71-34.24,31.35-61.17,66.29-61.17,18.36,0,34.99,7.44,47.02,19.48,10.86,10.86,17.98,25.45,19.27,41.69Z"/>
        </g>
        <g>
          <path class="cls-2" d="M1124.79,0c-2.71,34.23-31.35,61.17-66.29,61.17s-63.58-26.94-66.29-61.17h132.57Z"/>
          <g>
            <rect class="cls-2" x="992" y="61.26" width="133" height="267.21" rx="66.5" ry="66.5"/>
            <path class="cls-1" d="M992,128.36c36.73,0,66.5,29.77,66.5,66.5s-29.77,66.5-66.5,66.5v-133Z"/>
            <path class="cls-1" d="M1125,261.36c-36.73,0-66.5-29.77-66.5-66.5,0-36.73,29.77-66.5,66.5-66.5v133Z"/>
          </g>
          <path class="cls-2" d="M1124.79,389.72h-132.57c2.71-34.24,31.35-61.17,66.29-61.17,18.36,0,34.99,7.44,47.02,19.48,10.86,10.86,17.98,25.45,19.27,41.69Z"/>
        </g>
      </g>
    </g>
  </g>
</svg>