<?xml version="1.0" encoding="UTF-8"?>
<svg id="Layer_2" data-name="Layer 2" xmlns="http://www.w3.org/2000/svg" viewBox="0 0 584.25 96.97">
  <defs>
    <style>
      .cls-1 {
        fill: #da5e27;
      }
    </style>
  </defs>
  <g id="Arte">
    <g>
      <path class="cls-1" d="M50.57,80.97v-.63h1.72v16.63H0v-1.72h2.95V1.72H0V0h12.61v95.25h24.51c7.54-.44,13.45-6.71,13.45-14.28Z"/>
      <path class="cls-1" d="M74.29,1.72v78.62c.06,4.21,1.88,8.25,5.01,11.06,2.68,2.42,6.13,3.78,9.72,3.85,5.55-.07,10.88-2.16,15.01-5.89,4.86-4.39,7.65-10.67,7.65-17.25V16c0-7.58-5.92-13.85-13.48-14.28l-.62-.03.05-1.68h18.71v1.72h-2.95v70.39c0,7.06-3,13.81-8.22,18.52-4.45,4.01-10.18,6.26-16.15,6.33h-.01c-5.98-.07-11.71-2.32-16.16-6.33-5.22-4.71-8.22-11.46-8.22-18.52V1.72h-2.95V0h15.56v1.72h-2.95Z"/>
      <path class="cls-1" d="M136.64,65.21l-6.7,30.04h6.71v1.72h-15.56v-1.72h.63c3.65,0,6.86-2.46,7.8-5.98l16.35-73.43L140.99,0h9.73l29.39,95.25h3.17v1.72h-12.38l-9.8-31.75h-24.46ZM160.58,63.5l-13.68-44.34-9.87,44.34h23.55Z"/>
      <path class="cls-1" d="M234.2,0c6.48.07,12.77,1.4,18.69,3.95,5.71,2.47,10.84,5.97,15.24,10.42,4.4,4.45,7.86,9.61,10.27,15.35,2.5,5.95,3.76,12.26,3.76,18.76s-1.27,12.81-3.76,18.76c-2.41,5.74-5.87,10.91-10.27,15.35-4.4,4.44-9.53,7.95-15.24,10.42-5.91,2.55-12.2,3.88-18.69,3.95h-.81s-11.97,0-11.97,0v-1.72h2.95V1.72h-2.95V0h12.79ZM234.02,95.24h.16c10.23-.16,19.84-5.07,27.06-13.83,7.26-8.82,11.26-20.51,11.26-32.93s-4-24.11-11.26-32.93c-7.22-8.76-16.83-13.68-27.07-13.83h-.15v93.52Z"/>
      <path class="cls-1" d="M294.57,95.25V1.72h-2.95V0h52.29v16.63h-1.72v-.63c0-7.57-5.91-13.84-13.46-14.28h-24.51v45.91h15.37c4.66-.28,8.31-4.15,8.31-8.83v-.63h1.72v20.65h-1.72v-.63c0-4.68-3.65-8.55-8.31-8.83h-15.37v45.91h24.51c7.55-.44,13.46-6.71,13.46-14.28v-.63h1.72v16.63h-52.29v-1.72h2.95Z"/>
      <path class="cls-1" d="M389.56,1.72h-2.95V0h12.38l24.78,80.33L448.56,0h12.38v1.72h-2.95v93.53h2.95v1.72h-15.56v-1.72h2.95V6.56l-23.66,76.68,4.23,13.72h-9.73l-27.89-90.41v74.42c0,7.57,5.92,13.84,13.48,14.27l.62.04-.05,1.68h-18.71v-1.72h2.95V1.72Z"/>
      <path class="cls-1" d="M473.23,95.25V1.72h-2.95V0h52.29v16.63h-1.72v-.63c0-7.57-5.91-13.84-13.45-14.28h-24.51v45.91h15.37c4.66-.28,8.31-4.15,8.31-8.83v-.63h1.72v20.65h-1.72v-.63c0-4.68-3.65-8.55-8.31-8.83h-15.37v45.91h24.51c7.54-.44,13.45-6.71,13.45-14.28v-.63h1.72v16.63h-52.29v-1.72h2.95Z"/>
      <path class="cls-1" d="M582.53,80.97v-.63h1.72v16.63h-52.29v-1.72h2.95V1.72h-2.95V0h12.61v95.25h24.51c7.55-.44,13.46-6.71,13.46-14.28Z"/>
    </g>
  </g>
</svg>