<?xml version="1.0" encoding="UTF-8"?>
<svg id="Layer_2" data-name="Layer 2" xmlns="http://www.w3.org/2000/svg" xmlns:xlink="http://www.w3.org/1999/xlink" viewBox="0 0 1125 636.82">
  <defs>
    <style>
      .cls-1 {
        opacity: .25;
      }

      .cls-2 {
        fill: url(#New_Pattern);
      }

      .cls-3 {
        fill: none;
      }

      .cls-4 {
        fill: #f2dcd6;
      }
    </style>
    <pattern id="New_Pattern" data-name="New Pattern" x="0" y="0" width="280" height="185" patternTransform="translate(-26169.67 -23387.93) rotate(-180) scale(2.38)" patternUnits="userSpaceOnUse" viewBox="0 0 280 185">
      <g>
        <rect class="cls-3" width="280" height="185"/>
        <polygon class="cls-4" points="237.57 142.68 233.22 94.82 248.45 133.98 273.83 107.51 260.42 137.97 294.86 120.89 264.04 151.02 282.17 167.34 258.97 159.36 257.52 199.97 247.36 163.35 223.43 185.47 239.39 153.92 198.78 162.62 237.57 142.68"/>
        <g>
          <polygon class="cls-4" points="-42.43 142.68 -46.78 94.82 -31.55 133.98 -6.17 107.51 -19.58 137.97 14.86 120.89 -15.96 151.02 2.17 167.34 -21.03 159.36 -22.48 199.97 -32.64 163.35 -56.57 185.47 -40.61 153.92 -81.22 162.62 -42.43 142.68"/>
          <polygon class="cls-4" points="41.48 152.72 66.62 131.17 50.69 158.02 77.81 160.74 53.84 166.85 72.97 184.38 49.85 177.52 50.52 207.78 40.65 175.81 16.23 193.57 33 170.85 9.1 166.98 34.86 161.86 18.02 126.59 41.48 152.72"/>
        </g>
        <g>
          <polygon class="cls-4" points="237.57 -42.32 233.22 -90.18 248.45 -51.02 273.83 -77.49 260.42 -47.03 294.86 -64.11 264.04 -33.98 282.17 -17.66 258.97 -25.64 257.52 14.97 247.36 -21.65 223.43 .47 239.39 -31.08 198.78 -22.38 237.57 -42.32"/>
          <polygon class="cls-4" points="279.77 32.25 321.59 28.45 287.37 41.75 310.5 63.93 283.89 52.21 288.89 82.31 272.48 55.38 255.08 79.44 265.2 50.94 229.71 49.67 261.71 40.8 242.39 19.89 269.95 33.83 279.82 3.19 279.77 32.25"/>
        </g>
        <g>
          <polygon class="cls-4" points="97.57 50.18 93.22 2.32 108.45 41.48 133.83 15.01 120.42 45.47 154.86 28.39 124.04 58.52 142.17 74.84 118.97 66.86 117.52 107.47 107.36 70.85 83.43 92.97 99.39 61.42 58.78 70.12 97.57 50.18"/>
          <polygon class="cls-4" points="181.48 60.22 206.62 38.67 190.69 65.52 217.81 68.24 193.84 74.35 212.97 91.88 189.85 85.02 190.52 115.28 180.65 83.31 156.23 101.07 173 78.35 149.1 74.48 174.86 69.36 158.02 34.09 181.48 60.22"/>
          <polygon class="cls-4" points="139.77 124.75 181.59 120.95 147.37 134.25 170.5 156.43 143.89 144.71 148.89 174.81 132.48 147.88 115.08 171.94 125.2 143.44 89.71 142.17 121.71 133.3 102.39 112.39 129.95 126.33 139.82 95.69 139.77 124.75"/>
        </g>
        <g>
          <polygon class="cls-4" points="-42.43 -42.32 -46.78 -90.18 -31.55 -51.02 -6.17 -77.49 -19.58 -47.03 14.86 -64.11 -15.96 -33.98 2.17 -17.66 -21.03 -25.64 -22.48 14.97 -32.64 -21.65 -56.57 .47 -40.61 -31.08 -81.22 -22.38 -42.43 -42.32"/>
          <polygon class="cls-4" points="41.48 -32.28 66.62 -53.83 50.69 -26.98 77.81 -24.26 53.84 -18.15 72.97 -.62 49.85 -7.48 50.52 22.78 40.65 -9.19 16.23 8.57 33 -14.15 9.1 -18.02 34.86 -23.14 18.02 -58.41 41.48 -32.28"/>
          <polygon class="cls-4" points="-.23 32.25 41.59 28.45 7.37 41.75 30.5 63.93 3.89 52.21 8.89 82.31 -7.52 55.38 -24.92 79.44 -14.8 50.94 -50.29 49.67 -18.29 40.8 -37.61 19.89 -10.05 33.83 -.18 3.19 -.23 32.25"/>
        </g>
      </g>
    </pattern>
  </defs>
  <g id="BG">
    <g class="cls-1">
      <rect class="cls-2" x="0" y="0" width="1125" height="636.81"/>
    </g>
  </g>
</svg>