<?xml version="1.0" encoding="UTF-8"?>
<svg id="Layer_2" data-name="Layer 2" xmlns="http://www.w3.org/2000/svg" viewBox="0 0 35.62 35.59">
  <defs>
    <style>
      .cls-1 {
        fill: #fff;
      }
    </style>
  </defs>
  <g id="Arte">
    <path class="cls-1" d="M18.49,0l1.34.1c12.87,1.46,20.03,15.93,13.1,27.08-5.42,8.71-17.07,11.1-25.46,5.07C.04,26.92.23,19.13,0,18.46.02,17.95.47.65,17.17,0h1.32ZM13.79,9.6c-2.28.18-4.87.31-7.04,1.06-1.35.46-1.65,2.23-.38,2.97.84.49,1.51.07,2.35-.13,5.87-1.39,13.57-.76,18.97,1.98.63.32.93.65,1.72.57,1.29-.13,1.84-1.4,1.15-2.46-.37-.57-1.88-1.25-2.53-1.54-3.52-1.58-7.49-2.28-11.34-2.43-.08,0-.16-.04-.24-.04h-2.67ZM13.89,15.65c-1.89.09-3.78.32-5.6.83-.55.15-1.02.22-1.3.78-.43.87.01,1.9,1.02,1.99.59.05,1.72-.38,2.37-.51,4.78-.99,10.62-.29,14.95,1.99.82.43,1.51,1.16,2.44.46.72-.54.83-1.6.06-2.13-.28-.19-.67-.4-.97-.56-3.41-1.84-7.31-2.69-11.17-2.87h-1.8ZM14.17,21.46c-1.87.15-3.96.26-5.77.76-1.37.38-1.17,2.05.16,2.21,4.67-1.08,9.7-1.31,14.15.69.65.29,1.23.69,1.85,1,1.28.63,2.16-1.15,1.12-1.85-2.67-1.8-6.61-2.72-9.79-2.82h-1.73Z"/>
  </g>
</svg>